<?xml version="1.0" standalone="no"?>
<!DOCTYPE svg PUBLIC "-//W3C//DTD SVG 20010904//EN"
 "http://www.w3.org/TR/2001/REC-SVG-20010904/DTD/svg10.dtd">
<svg version="1.0" xmlns="http://www.w3.org/2000/svg"
 width="420.000000pt" height="420.000000pt" viewBox="0 0 420.000000 420.000000"
 preserveAspectRatio="xMidYMid meet">
<metadata>
Created by potrace 1.14, written by Peter Selinger 2001-2017
</metadata>
<g transform="translate(0.000000,420.000000) scale(0.100000,-0.100000)"
fill="#000000" stroke="none">
<path d="M354 1746 l0 -1404 701 0 702 0 1 332 c0 182 1 338 1 346 1 14 41 16
344 14 188 -1 344 -2 347 -3 3 0 5 -155 5 -343 l0 -343 700 0 700 0 1 1403 2
1402 -354 0 -354 0 0 -348 0 -348 -327 1 c-181 0 -334 -4 -340 -9 -8 -5 -13
-4 -13 3 0 7 -4 10 -8 7 -12 -7 -11 26 1 42 5 6 5 12 0 12 -5 0 -9 9 -10 20
-1 13 2 18 9 14 7 -4 8 -2 4 5 -11 17 -14 161 -3 161 4 0 5 5 1 11 -11 18 -11
148 0 142 5 -4 6 -1 2 6 -11 17 -14 131 -4 125 4 -3 8 -1 8 5 0 5 -6 11 -12
14 -10 3 -10 7 1 20 8 10 9 17 3 17 -7 0 -8 10 -2 29 6 21 5 31 -3 34 -9 3 -8
8 2 20 12 16 -12 17 -348 17 -337 0 -361 -1 -362 -17 -3 -65 0 -224 5 -232 3
-5 0 -12 -6 -14 -10 -4 -10 -8 1 -15 7 -5 9 -12 4 -15 -9 -6 -9 -70 1 -86 4
-5 2 -12 -3 -15 -4 -3 -5 -24 -1 -45 5 -26 3 -42 -4 -46 -8 -3 -7 -7 2 -11 6
-3 9 -11 5 -17 -3 -6 -7 -49 -7 -96 l-1 -86 -328 0 c-180 0 -327 -4 -327 -9 0
-5 -6 -4 -13 3 -11 8 -13 77 -12 338 0 181 -1 336 -3 346 -4 16 -29 17 -356
17 l-352 0 0 -1404z m2087 692 c11 -4 14 -68 13 -342 0 -233 -4 -340 -11 -344
-14 -9 -670 -8 -679 1 -5 5 -9 619 -5 682 1 10 656 13 682 3z"/>
</g>
</svg>
